<svg id="Layer_1" data-name="Layer 1" xmlns="http://www.w3.org/2000/svg" viewBox="0 0 350.59 30.06"><title>CSIS-footer-logo</title><path d="M34.86,24c.86.13,2,.56,2.51.63.16,0,.5.23.5,1s.16,2.15.23,2.87-.23,1.09-.5,1.09-.36-.36-.53-.86a5.13,5.13,0,0,0-1.35-2.48,8.27,8.27,0,0,0-5.28-1.72c-5.32,0-8.72,4.39-8.72,9.38a12,12,0,0,0,1.16,5.45,9.53,9.53,0,0,0,8.35,5.28,7.58,7.58,0,0,0,3.6-.89,7.38,7.38,0,0,0,3.07-3.2c.43-.69.56-.86.69-.86.33,0,.36.73.3,1.09a11.92,11.92,0,0,1-1.32,3.34,2.64,2.64,0,0,1-1,.86,20,20,0,0,1-6,.92A12.79,12.79,0,0,1,21.15,42a11.15,11.15,0,0,1-2.77-7.6A11,11,0,0,1,22,26.53a13.62,13.62,0,0,1,8.95-3A18.36,18.36,0,0,1,34.86,24Z" transform="translate(-18.38 -19.8)" fill="#fff"/><path d="M53,24.08c.2.07.4.56.4.63.07.63.33,2.54.33,2.67,0,.56,0,.89-.23.89a.92.92,0,0,1-.79-.69,5.31,5.31,0,0,0-1.62-2.38,3.76,3.76,0,0,0-2.34-.76A3.71,3.71,0,0,0,45,28.31c0,2.34,1.68,3.37,4.59,5.32,2.54,1.72,4.56,3.43,4.56,6.41a5.72,5.72,0,0,1-2.71,4.66,9.35,9.35,0,0,1-4.49,1.19A13.26,13.26,0,0,1,42.61,45,2.46,2.46,0,0,1,41.85,44c-.16-1.12-.5-2.58-.5-3.1,0-.13.33-.63.46-.63s.76.86,1.22,1.88a5.12,5.12,0,0,0,4.29,2.64,3.85,3.85,0,0,0,4-4c0-1.39-.66-2.87-4.13-5.08-2.81-1.82-4.79-3.73-4.79-6.54a5.42,5.42,0,0,1,1.82-4,7,7,0,0,1,4.89-1.62A20.29,20.29,0,0,1,53,24.08Z" transform="translate(-18.38 -19.8)" fill="#fff"/><path d="M60.11,27.32c-.1-1.52-.1-2-1.95-2.34-.73-.13-.92-.36-.92-.59s.36-.4.83-.4c.86,0,2.51.1,3.6.1,1.62,0,2.38-.1,3.53-.1.53,0,.83.13.83.4s-.33.46-.86.56c-1.92.4-1.88,1.22-2,2.11a94.71,94.71,0,0,0-.2,9.71c0,1.82,0,3.86.1,4.92.1,1.78.26,2.41,2.41,2.84.59.1.86.33.86.56s-.5.43-.89.43c-1.68,0-4-.2-4.92-.2s-1.29.07-2.51.07c-.63,0-.86-.23-.86-.46s.33-.43,1-.56c1.65-.36,1.78-.86,1.92-2.41.1-1.16.17-4.59.17-7.4C60.21,32.5,60.18,28.41,60.11,27.32Z" transform="translate(-18.38 -19.8)" fill="#fff"/><path d="M80.45,24.08c.2.07.4.56.4.63.07.63.33,2.54.33,2.67,0,.56,0,.89-.23.89a.92.92,0,0,1-.79-.69,5.31,5.31,0,0,0-1.62-2.38,3.76,3.76,0,0,0-2.34-.76,3.71,3.71,0,0,0-3.8,3.86c0,2.34,1.68,3.37,4.59,5.32,2.54,1.72,4.56,3.43,4.56,6.41a5.72,5.72,0,0,1-2.71,4.66,9.35,9.35,0,0,1-4.49,1.19A13.27,13.27,0,0,1,70,45,2.46,2.46,0,0,1,69.25,44c-.17-1.12-.5-2.58-.5-3.1,0-.13.33-.63.46-.63s.76.86,1.22,1.88a5.12,5.12,0,0,0,4.29,2.64,3.85,3.85,0,0,0,4-4c0-1.39-.66-2.87-4.13-5.08-2.81-1.82-4.79-3.73-4.79-6.54a5.42,5.42,0,0,1,1.82-4,7,7,0,0,1,4.89-1.62A20.29,20.29,0,0,1,80.45,24.08Z" transform="translate(-18.38 -19.8)" fill="#fff"/><path d="M93.55,49.28v-29a.5.5,0,0,1,.5-.5h0a.5.5,0,0,1,.5.5h0v29a.5.5,0,0,1-.5.5h0a.5.5,0,0,1-.5-.5Z" transform="translate(-18.38 -19.8)" fill="#fff"/><path d="M109.58,32.74c-1.56,0-2.95-.89-2.95-3.44,0-2.07,1.28-3.33,2.93-3.33h1.9c.09,0,.13,0,.13.11l-.08.65a.12.12,0,0,1-.17.11,4.33,4.33,0,0,0-1.8-.31c-1,0-1.52,1-1.52,2.77,0,2.16.86,2.83,1.89,2.83a2.34,2.34,0,0,0,1.39-.66s.08,0,.11,0l.28.31a.06.06,0,0,1,0,.1A2.8,2.8,0,0,1,109.58,32.74Z" transform="translate(-18.38 -19.8)" fill="#fff"/><path d="M117.54,32.61h-4.12c-.1,0-.14,0-.14-.13V26.11c0-.09,0-.13.14-.13h4c.09,0,.17,0,.17.11v.52c0,.09-.08.11-.17.1s-1.18-.17-1.75-.17h-.88a.26.26,0,0,0-.27.25v2a.08.08,0,0,0,.08.08l2-.06c.06,0,.11,0,.11.08v.52c0,.06-.06.08-.11.08l-2-.06a.08.08,0,0,0-.08.08v2.25a.27.27,0,0,0,.27.27h.88a17.77,17.77,0,0,0,1.87-.21c.09,0,.17,0,.17.1v.56C117.7,32.59,117.63,32.61,117.54,32.61Z" transform="translate(-18.38 -19.8)" fill="#fff"/><path d="M124.46,30.84v1.78c0,.18-.56.17-.61.1l-3.54-4.84c-.06-.07-.13,0-.13,0l.13,4.52c0,.1,0,.18-.11.18h-.78c-.1,0-.12-.08-.12-.18l.12-4.68,0-1.63c0-.09,0-.13.14-.13h.62a.22.22,0,0,1,.19.09l3.12,4.25c.08.1.2.06.2,0l-.09-4.12c0-.1,0-.18.11-.18h.73c.09,0,.11.08.11.18Z" transform="translate(-18.38 -19.8)" fill="#fff"/><path d="M131.28,26.58c0,.09-.06.11-.14.1s-1.13-.13-1.68-.13a.19.19,0,0,0-.15.2v5.73c0,.09,0,.13-.14.13h-1c-.1,0-.14,0-.14-.13V26.74a.19.19,0,0,0-.16-.2c-.55,0-1.68.13-1.68.13s-.13,0-.14-.1l0-.49c0-.09.09-.11.18-.11h4.93c.09,0,.19,0,.18.11Z" transform="translate(-18.38 -19.8)" fill="#fff"/><path d="M137.1,32.61H133c-.1,0-.14,0-.14-.13V26.11c0-.09,0-.13.14-.13h4c.09,0,.17,0,.17.11v.52c0,.09-.08.11-.17.1s-1.18-.17-1.75-.17h-.88a.26.26,0,0,0-.27.25v2a.08.08,0,0,0,.08.08l2-.06c.05,0,.11,0,.11.08v.52c0,.06-.06.08-.11.08l-2-.06a.08.08,0,0,0-.08.08v2.25a.27.27,0,0,0,.27.27h.88a17.77,17.77,0,0,0,1.87-.21c.09,0,.16,0,.16.1v.56C137.26,32.59,137.19,32.61,137.1,32.61Z" transform="translate(-18.38 -19.8)" fill="#fff"/><path d="M144.08,32.61h-1.23c-.1,0-.13-.07-.19-.13l-1.38-2.53c-.15-.3-.35-.44-.56-.44h-.41a.21.21,0,0,0-.21.18v2.8c0,.09,0,.13-.14.13h-1c-.1,0-.14,0-.14-.13V26.11c0-.09,0-.13.1-.13h2.88a1.64,1.64,0,0,1,1.76,1.57A1.88,1.88,0,0,1,142,29.37c-.07,0-.07.06,0,.09a2.41,2.41,0,0,1,.41.52l1.46,2.08.31.42C144.24,32.55,144.17,32.61,144.08,32.61Zm-3-6.19h-.72a.28.28,0,0,0-.29.25v2.2a.23.23,0,0,0,.21.2h.38c1,0,1.58-.39,1.58-1.45A1.13,1.13,0,0,0,141.12,26.42Z" transform="translate(-18.38 -19.8)" fill="#fff"/><path d="M153,26.71s-1.35-.17-1.75-.17h-.77a.26.26,0,0,0-.27.25v2a.08.08,0,0,0,.08.08l1.89-.06c.05,0,.11,0,.11.08v.52c0,.06-.06.08-.11.08l-1.89-.06a.08.08,0,0,0-.08.08l0,3c0,.09,0,.13-.14.13h-1c-.1,0-.14,0-.14-.13V26.11c0-.09,0-.13.14-.13H153c.09,0,.17,0,.17.11v.52C153.19,26.7,153.11,26.72,153,26.71Z" transform="translate(-18.38 -19.8)" fill="#fff"/><path d="M157.1,32.81c-2.23,0-2.87-1.66-2.87-3.47s.71-3.54,2.91-3.54S160,27.46,160,29.27,159.31,32.81,157.1,32.81Zm0-6.53c-1.34,0-1.51,1.6-1.51,2.88s.08,3.17,1.6,3.17c1.33,0,1.51-1.61,1.51-2.88S158.61,26.28,157.08,26.28Z" transform="translate(-18.38 -19.8)" fill="#fff"/><path d="M167.08,32.61h-1.23c-.1,0-.13-.07-.19-.13l-1.38-2.53c-.15-.3-.35-.44-.56-.44h-.41a.21.21,0,0,0-.21.18v2.8c0,.09,0,.13-.14.13h-1c-.1,0-.14,0-.14-.13V26.11c0-.09,0-.13.1-.13h2.88a1.64,1.64,0,0,1,1.76,1.57A1.88,1.88,0,0,1,165,29.37c-.07,0-.07.06,0,.09a2.42,2.42,0,0,1,.41.52l1.46,2.08.31.42C167.23,32.55,167.17,32.61,167.08,32.61Zm-3-6.19h-.72a.28.28,0,0,0-.29.25v2.2a.23.23,0,0,0,.21.2h.38c1,0,1.58-.39,1.58-1.45A1.13,1.13,0,0,0,164.12,26.42Z" transform="translate(-18.38 -19.8)" fill="#fff"/><path d="M174.06,32.74a5.65,5.65,0,0,1-2.26-.45.15.15,0,0,1-.07-.19l.2-.74c0-.09.12-.09.19,0a2.86,2.86,0,0,0,2,.85,1.26,1.26,0,0,0,1.29-1.12c0-1.73-3.7-1-3.7-3.51,0-1.09.76-1.76,2-1.76A22.84,22.84,0,0,1,176,26c.08,0,.1.08.08.14l-.16.74c0,.08-.1.1-.18.06a3.66,3.66,0,0,0-2-.62.91.91,0,0,0-1,.85c0,1.77,3.71.94,3.71,3.67C176.47,32.2,175.44,32.74,174.06,32.74Z" transform="translate(-18.38 -19.8)" fill="#fff"/><path d="M182.92,26.58c0,.09-.05.11-.14.1s-1.13-.13-1.68-.13a.19.19,0,0,0-.16.2v5.73c0,.09,0,.13-.14.13h-1c-.1,0-.14,0-.14-.13V26.74a.19.19,0,0,0-.16-.2c-.55,0-1.68.13-1.68.13s-.13,0-.14-.1l0-.49c0-.09.09-.11.18-.11h4.93c.09,0,.19,0,.18.11Z" transform="translate(-18.38 -19.8)" fill="#fff"/><path d="M189.7,32.61h-1.23c-.1,0-.13-.07-.19-.13l-1.38-2.53c-.15-.3-.35-.44-.56-.44h-.41a.21.21,0,0,0-.21.18v2.8c0,.09,0,.13-.14.13h-1c-.1,0-.14,0-.14-.13V26.11c0-.09,0-.13.1-.13h2.88a1.64,1.64,0,0,1,1.76,1.57,1.88,1.88,0,0,1-1.57,1.82c-.07,0-.07.06,0,.09A2.42,2.42,0,0,1,188,30l1.46,2.08.31.42C189.85,32.55,189.79,32.61,189.7,32.61Zm-3-6.19H186a.28.28,0,0,0-.29.25v2.2a.23.23,0,0,0,.21.2h.38c1,0,1.58-.39,1.58-1.45A1.13,1.13,0,0,0,186.74,26.42Z" transform="translate(-18.38 -19.8)" fill="#fff"/><path d="M197,32.61H195.8a.19.19,0,0,1-.2-.13l-.26-.75-.35-.94a.13.13,0,0,0-.13-.09h-2.05a.13.13,0,0,0-.13.09l-.54,1.7a.16.16,0,0,1-.18.12h-.77c-.1,0-.12-.08-.09-.17L193.55,26c0-.14.78-.14.84,0l2.31,5.71c.11.28.37.74.37.74S197.08,32.61,197,32.61Zm-3.14-4.94a.06.06,0,0,0-.11,0l-.85,2.45a.09.09,0,0,0,.08.11h1.75a.08.08,0,0,0,.07-.11Z" transform="translate(-18.38 -19.8)" fill="#fff"/><path d="M202.54,26.58c0,.09-.05.11-.14.1s-1.13-.13-1.68-.13a.19.19,0,0,0-.16.2v5.73c0,.09,0,.13-.14.13h-1c-.1,0-.14,0-.14-.13V26.74a.19.19,0,0,0-.16-.2c-.55,0-1.68.13-1.68.13s-.13,0-.14-.1l0-.49c0-.09.09-.11.18-.11h4.93c.09,0,.19,0,.18.11Z" transform="translate(-18.38 -19.8)" fill="#fff"/><path d="M208.36,32.61h-4.12c-.1,0-.14,0-.14-.13V26.11c0-.09,0-.13.14-.13h4c.09,0,.17,0,.17.11v.52c0,.09-.08.11-.17.1s-1.18-.17-1.75-.17h-.88a.26.26,0,0,0-.27.25v2a.08.08,0,0,0,.08.08l2-.06c.05,0,.11,0,.11.08v.52c0,.06-.06.08-.11.08l-2-.06a.08.08,0,0,0-.08.08v2.25a.27.27,0,0,0,.27.27h.88a17.77,17.77,0,0,0,1.87-.21c.09,0,.16,0,.16.1v.56C208.53,32.59,208.45,32.61,208.36,32.61Z" transform="translate(-18.38 -19.8)" fill="#fff"/><path d="M215,32.64c-.12,0-.42-.3-.42-.3a.19.19,0,0,0-.2,0,3.75,3.75,0,0,1-1.7.4c-1.56,0-2.95-.89-2.95-3.44,0-2.07,1.28-3.34,2.93-3.34h1.9c.09,0,.13,0,.13.11l-.08.65a.12.12,0,0,1-.17.11,4.33,4.33,0,0,0-1.8-.31c-1,0-1.55,1-1.55,2.77,0,2.16.88,2.85,1.91,2.85.36,0,1-.33,1-.71,0-.09-.11-1.82-.11-1.82s0-.23,0-.27a.15.15,0,0,1,.14-.15h1a.09.09,0,0,1,.09.08v3.19A.18.18,0,0,1,215,32.64Z" transform="translate(-18.38 -19.8)" fill="#fff"/><path d="M218.15,32.61h-1c-.1,0-.14,0-.14-.13V26.11c0-.09,0-.13.14-.13h1c.1,0,.14,0,.14.13v6.36C218.3,32.57,218.25,32.61,218.15,32.61Z" transform="translate(-18.38 -19.8)" fill="#fff"/><path d="M223.06,32.74c-1.56,0-2.95-.89-2.95-3.44,0-2.07,1.28-3.33,2.93-3.33h1.9c.09,0,.13,0,.13.11l-.08.65a.12.12,0,0,1-.17.11,4.33,4.33,0,0,0-1.8-.31c-1,0-1.52,1-1.52,2.77,0,2.16.86,2.83,1.89,2.83a2.34,2.34,0,0,0,1.39-.66s.08,0,.11,0l.28.31a.06.06,0,0,1,0,.1A2.8,2.8,0,0,1,223.06,32.74Z" transform="translate(-18.38 -19.8)" fill="#fff"/><path d="M233.83,30H233v2.54a.13.13,0,0,1-.13.12h-2.49a1.56,1.56,0,0,1-1.76-1.54,1.63,1.63,0,0,1,1.27-1.5,1.29,1.29,0,0,1-.8-1.22c0-.95.66-1.38,1.67-1.38h1c.1,0,.17,0,.16.12l0,.42c0,.1-.05.13-.14.1a1.42,1.42,0,0,0-.63-.24c-.54,0-.85.28-.86,1a1,1,0,0,0,1,1.09H232v-.71a.11.11,0,0,1,.14-.12l.77.09a.12.12,0,0,1,.13.11v.63h.77c.1,0,.12,0,.12.11v.27C233.92,29.91,233.92,30,233.83,30Zm-1.86,0h-1a1.05,1.05,0,0,0-1,1.07,1.09,1.09,0,0,0,.95,1.2,4.05,4.05,0,0,0,1.15-.12Z" transform="translate(-18.38 -19.8)" fill="#fff"/><path d="M108,45.5h-1c-.1,0-.14,0-.14-.13V39c0-.09,0-.13.14-.13h1c.1,0,.14,0,.14.13v6.36C108.12,45.45,108.07,45.5,108,45.5Z" transform="translate(-18.38 -19.8)" fill="#fff"/><path d="M115.32,43.73v1.78c0,.18-.56.17-.61.1l-3.54-4.84c-.06-.07-.13,0-.13,0l.13,4.52c0,.1,0,.18-.11.18h-.78c-.1,0-.12-.08-.12-.18l.12-4.68,0-1.63c0-.09,0-.13.14-.13H111a.22.22,0,0,1,.19.09l3.12,4.25c.08.1.2.06.2,0L114.44,39c0-.1,0-.18.11-.18h.73c.09,0,.11.08.11.18Z" transform="translate(-18.38 -19.8)" fill="#fff"/><path d="M122.15,39.47c0,.09-.06.11-.14.1s-1.13-.13-1.68-.13a.19.19,0,0,0-.15.2v5.73c0,.09,0,.13-.14.13h-1c-.1,0-.14,0-.14-.13V39.63a.19.19,0,0,0-.15-.2c-.55,0-1.68.13-1.68.13s-.13,0-.14-.1l0-.49c0-.09.09-.11.18-.11H122c.09,0,.19,0,.18.11Z" transform="translate(-18.38 -19.8)" fill="#fff"/><path d="M128,45.5h-4.12c-.1,0-.14,0-.14-.13V39c0-.09,0-.13.14-.13h4c.09,0,.17,0,.17.11v.52c0,.09-.08.11-.17.1s-1.18-.17-1.75-.17h-.88a.26.26,0,0,0-.27.25v2a.08.08,0,0,0,.08.08l2-.06c.05,0,.11,0,.11.08v.52c0,.06-.06.08-.11.08l-2-.05a.08.08,0,0,0-.08.08v2.25a.27.27,0,0,0,.27.26h.88a17.75,17.75,0,0,0,1.87-.21c.09,0,.17,0,.17.1v.56C128.13,45.48,128.05,45.5,128,45.5Z" transform="translate(-18.38 -19.8)" fill="#fff"/><path d="M135,45.5h-1.23c-.1,0-.13-.07-.19-.13l-1.38-2.53c-.16-.3-.35-.44-.56-.44h-.41a.21.21,0,0,0-.21.18v2.79c0,.09,0,.13-.14.13h-1c-.1,0-.14,0-.14-.13V39c0-.09,0-.13.1-.13h2.88a1.64,1.64,0,0,1,1.76,1.57,1.88,1.88,0,0,1-1.57,1.82c-.07,0-.07.06,0,.09a2.41,2.41,0,0,1,.41.52l1.46,2.08.31.42C135.1,45.44,135,45.5,135,45.5Zm-3-6.19h-.72a.28.28,0,0,0-.29.25v2.2a.23.23,0,0,0,.21.2h.38c1,0,1.58-.39,1.58-1.45A1.13,1.13,0,0,0,132,39.31Z" transform="translate(-18.38 -19.8)" fill="#fff"/><path d="M141.79,43.73v1.78c0,.18-.56.17-.61.1l-3.54-4.84c-.06-.07-.13,0-.13,0l.13,4.52c0,.1,0,.18-.11.18h-.78c-.1,0-.12-.08-.12-.18l.12-4.68,0-1.63c0-.09,0-.13.14-.13h.62a.22.22,0,0,1,.19.09l3.12,4.25c.08.1.2.06.2,0L140.9,39c0-.1,0-.18.11-.18h.73c.09,0,.11.08.11.18Z" transform="translate(-18.38 -19.8)" fill="#fff"/><path d="M149.24,45.5h-1.18a.19.19,0,0,1-.2-.13l-.26-.75-.35-.94a.13.13,0,0,0-.13-.09h-2.05a.13.13,0,0,0-.13.09l-.54,1.7a.16.16,0,0,1-.18.12h-.77c-.1,0-.12-.08-.09-.17l2.47-6.42c0-.14.78-.14.84,0L149,44.63c.11.28.37.74.37.74S149.34,45.5,149.24,45.5Zm-3.14-4.94a.06.06,0,0,0-.11,0L145.14,43a.09.09,0,0,0,.08.11H147A.08.08,0,0,0,147,43Z" transform="translate(-18.38 -19.8)" fill="#fff"/><path d="M154.81,39.47c0,.09-.05.11-.14.1s-1.13-.13-1.68-.13a.19.19,0,0,0-.16.2v5.73c0,.09,0,.13-.14.13h-1c-.1,0-.14,0-.14-.13V39.63a.19.19,0,0,0-.16-.2c-.55,0-1.68.13-1.68.13s-.13,0-.14-.1l0-.49c0-.09.09-.11.18-.11h4.93c.09,0,.19,0,.18.11Z" transform="translate(-18.38 -19.8)" fill="#fff"/><path d="M157.48,45.5h-1c-.1,0-.14,0-.14-.13V39c0-.09,0-.13.14-.13h1c.1,0,.14,0,.14.13v6.36C157.62,45.45,157.58,45.5,157.48,45.5Z" transform="translate(-18.38 -19.8)" fill="#fff"/><path d="M162.32,45.7c-2.23,0-2.87-1.66-2.87-3.47s.71-3.54,2.91-3.54,2.88,1.66,2.88,3.47S164.53,45.7,162.32,45.7Zm0-6.53c-1.34,0-1.51,1.6-1.51,2.88s.08,3.17,1.6,3.17c1.33,0,1.51-1.61,1.51-2.88S163.83,39.17,162.3,39.17Z" transform="translate(-18.38 -19.8)" fill="#fff"/><path d="M172.2,43.73v1.78c0,.18-.56.17-.61.1l-3.54-4.84c-.06-.07-.13,0-.13,0l.13,4.52c0,.1,0,.18-.11.18h-.78c-.1,0-.12-.08-.12-.18l.12-4.68,0-1.63c0-.09,0-.13.14-.13h.62a.22.22,0,0,1,.19.09l3.12,4.25c.08.1.2.06.2,0L171.31,39c0-.1,0-.18.11-.18h.73c.09,0,.11.08.11.18Z" transform="translate(-18.38 -19.8)" fill="#fff"/><path d="M179.65,45.5h-1.18a.19.19,0,0,1-.2-.13l-.26-.75-.35-.94a.13.13,0,0,0-.13-.09h-2.05a.13.13,0,0,0-.13.09l-.54,1.7a.16.16,0,0,1-.18.12h-.77c-.1,0-.12-.08-.09-.17l2.47-6.42c0-.14.78-.14.84,0l2.31,5.71c.11.28.37.74.37.74S179.75,45.5,179.65,45.5Zm-3.14-4.94a.06.06,0,0,0-.11,0L175.55,43a.09.09,0,0,0,.08.11h1.75a.08.08,0,0,0,.07-.11Z" transform="translate(-18.38 -19.8)" fill="#fff"/><path d="M185.24,45.5h-3.82c-.1,0-.14,0-.14-.13V39c0-.09,0-.13.14-.13h1c.1,0,.14,0,.14.13v5.67a.27.27,0,0,0,.26.26h.77a12.84,12.84,0,0,0,1.67-.21c.09,0,.17,0,.17.1v.56C185.4,45.48,185.32,45.5,185.24,45.5Z" transform="translate(-18.38 -19.8)" fill="#fff"/><path d="M192.28,45.63a5.65,5.65,0,0,1-2.26-.45A.15.15,0,0,1,190,45l.2-.74c0-.09.12-.09.19,0a2.85,2.85,0,0,0,2,.85A1.26,1.26,0,0,0,193.66,44c0-1.73-3.7-1-3.7-3.51,0-1.09.76-1.76,2-1.76a22.87,22.87,0,0,1,2.29.2c.08,0,.1.08.08.14l-.16.74c0,.08-.1.1-.18.06a3.65,3.65,0,0,0-2-.62.91.91,0,0,0-1,.85c0,1.77,3.71.94,3.71,3.67C194.69,45.09,193.66,45.63,192.28,45.63Z" transform="translate(-18.38 -19.8)" fill="#fff"/><path d="M201.15,39.47c0,.09-.05.11-.14.1s-1.13-.13-1.68-.13a.19.19,0,0,0-.16.2v5.73c0,.09,0,.13-.14.13h-1c-.1,0-.14,0-.14-.13V39.63a.19.19,0,0,0-.16-.2c-.55,0-1.68.13-1.68.13s-.13,0-.14-.1l0-.49c0-.09.09-.11.18-.11H201c.09,0,.19,0,.18.11Z" transform="translate(-18.38 -19.8)" fill="#fff"/><path d="M207.75,39.83l-.09,3.69a2,2,0,0,1-2.33,2.15c-1.69,0-2.58-.74-2.61-2.15l0-3.78V39c0-.09,0-.13.14-.13h1c.1,0,.14,0,.14.13l0,.74v3.7a1.46,1.46,0,0,0,1.44,1.62,1.36,1.36,0,0,0,1.39-1.51l0-3.69c0-.34,0-.82,0-.82s0-.18.11-.18h.87c.1,0,.12.08.12.18S207.75,39.49,207.75,39.83Z" transform="translate(-18.38 -19.8)" fill="#fff"/><path d="M212,45.54a12.23,12.23,0,0,1-1.56-.09c-.29,0-.27.05-.52.05-.07,0-.14,0-.14-.11V39c0-.09,0-.13.14-.13h2.35c1.42,0,2.74,1.06,2.74,3.19C215,43.86,213.94,45.54,212,45.54Zm0-6.21h-.73c-.13,0-.2.1-.2.24v4.92c0,.42.3.55.8.55,1.57,0,1.83-1.89,1.83-3.06C213.65,40,212.77,39.33,212,39.33Z" transform="translate(-18.38 -19.8)" fill="#fff"/><path d="M217.92,45.5h-1c-.1,0-.14,0-.14-.13V39c0-.09,0-.13.14-.13h1c.1,0,.14,0,.14.13v6.36C218.07,45.45,218,45.5,217.92,45.5Z" transform="translate(-18.38 -19.8)" fill="#fff"/><path d="M224.41,45.5h-4.12c-.1,0-.14,0-.14-.13V39c0-.09,0-.13.14-.13h4c.09,0,.17,0,.17.11v.52c0,.09-.08.11-.17.1s-1.18-.17-1.75-.17h-.88a.26.26,0,0,0-.27.25v2a.08.08,0,0,0,.08.08l2-.06c.05,0,.11,0,.11.08v.52c0,.06-.06.08-.11.08l-2-.05a.08.08,0,0,0-.08.08v2.25a.27.27,0,0,0,.27.26h.88a17.77,17.77,0,0,0,1.87-.21c.09,0,.16,0,.16.1v.56C224.57,45.48,224.5,45.5,224.41,45.5Z" transform="translate(-18.38 -19.8)" fill="#fff"/><path d="M228.37,45.63a5.65,5.65,0,0,1-2.26-.45A.15.15,0,0,1,226,45l.2-.74c0-.09.12-.09.19,0a2.85,2.85,0,0,0,2,.85A1.26,1.26,0,0,0,229.75,44c0-1.73-3.7-1-3.7-3.51,0-1.09.76-1.76,2-1.76a22.81,22.81,0,0,1,2.29.2c.08,0,.1.08.08.14l-.16.74c0,.08-.1.1-.18.06a3.66,3.66,0,0,0-2-.62.91.91,0,0,0-1,.85c0,1.77,3.71.94,3.71,3.67C230.78,45.09,229.75,45.63,228.37,45.63Z" transform="translate(-18.38 -19.8)" fill="#fff"/><path d="M245.93,49.35v-29a.5.5,0,0,1,.5-.5h0a.5.5,0,0,1,.5.5h0v29a.5.5,0,0,1-.5.5h0a.5.5,0,0,1-.5-.5Z" transform="translate(-18.38 -19.8)" fill="#fff"/><path d="M264.63,32.3c.05.09,0,.13-.09.13h-1.18a.19.19,0,0,1-.2-.13l-.1-.28-.09-.24-.08-.23-.35-.94a.13.13,0,0,0-.13-.09h-2a.13.13,0,0,0-.13.09l-.54,1.69a.17.17,0,0,1-.18.12h-.77c-.05,0-.08,0-.09,0a.18.18,0,0,1,0-.12l2.46-6.39s.06-.06.15-.08l.27,0,.27,0c.08,0,.13,0,.15.08l2.3,5.69.1.23.12.24Zm-3.21-4.79s0,0-.06,0,0,0-.05,0L260.46,30a.06.06,0,0,0,0,.08.09.09,0,0,0,.07,0h1.74c.07,0,.1,0,.07-.11Z" transform="translate(-18.38 -19.8)" fill="#fff"/><path d="M270.32,32.41l-.12,0h-4.11q-.14,0-.14-.13V26c0-.09,0-.13.14-.13h4l.12,0a.09.09,0,0,1,0,.09v.52a.09.09,0,0,1,0,.09.2.2,0,0,1-.12,0l-.66-.08-.57-.06-.51,0h-.88a.26.26,0,0,0-.19.07.23.23,0,0,0-.08.18v2a.07.07,0,0,0,.08.08l2-.06c.07,0,.11,0,.11.08v.52c0,.05,0,.08-.11.08l-2-.06a.07.07,0,0,0-.08.08V31.6a.26.26,0,0,0,.26.26h.88l.53,0,.62-.07.71-.11a.2.2,0,0,1,.12,0,.09.09,0,0,1,0,.09v.56A.09.09,0,0,1,270.32,32.41Z" transform="translate(-18.38 -19.8)" fill="#fff"/><path d="M277.4,32.3s0,.07,0,.09a.14.14,0,0,1-.11,0h-1.22a.14.14,0,0,1-.11,0l-.08-.09-1.38-2.52q-.24-.44-.56-.44h-.41a.23.23,0,0,0-.14,0,.15.15,0,0,0-.07.13V32.3q0,.13-.14.13h-1c-.09,0-.14,0-.14-.13V26a.22.22,0,0,1,0-.1s0,0,.09,0h2.87a2,2,0,0,1,.68.12,1.71,1.71,0,0,1,.56.32,1.55,1.55,0,0,1,.38.5,1.43,1.43,0,0,1,.14.63,1.7,1.7,0,0,1-.44,1.18,2.08,2.08,0,0,1-1.13.64c-.07,0-.08,0,0,.09a1.26,1.26,0,0,1,.16.17l.26.35,1.44,2.07Zm-1.91-4.83a1.22,1.22,0,0,0-.31-.87,1.08,1.08,0,0,0-.83-.34h-.71a.31.31,0,0,0-.2.07.22.22,0,0,0-.09.18v2.2a.18.18,0,0,0,.07.14.21.21,0,0,0,.14.06h.37a1.83,1.83,0,0,0,1.15-.33A1.34,1.34,0,0,0,275.48,27.46Z" transform="translate(-18.38 -19.8)" fill="#fff"/><path d="M284.3,29.09a5.58,5.58,0,0,1-.14,1.26,3.16,3.16,0,0,1-.48,1.11,2.58,2.58,0,0,1-.9.79,2.86,2.86,0,0,1-1.38.3,3,3,0,0,1-1.39-.28,2.35,2.35,0,0,1-.88-.75,3,3,0,0,1-.46-1.09,6.08,6.08,0,0,1-.13-1.28,5.58,5.58,0,0,1,.14-1.26,3.21,3.21,0,0,1,.48-1.11A2.53,2.53,0,0,1,280,26a2.86,2.86,0,0,1,1.38-.3,3.07,3.07,0,0,1,1.39.28,2.36,2.36,0,0,1,.89.75,3,3,0,0,1,.46,1.09A6.08,6.08,0,0,1,284.3,29.09Zm-1.33.18q0-.45,0-1a4.2,4.2,0,0,0-.19-1,1.9,1.9,0,0,0-.47-.78,1.22,1.22,0,0,0-.89-.31,1.17,1.17,0,0,0-.8.26,1.64,1.64,0,0,0-.46.67,3.61,3.61,0,0,0-.2.9,9.59,9.59,0,0,0,0,1c0,.3,0,.63,0,1a3.89,3.89,0,0,0,.19,1,2,2,0,0,0,.48.78,1.22,1.22,0,0,0,.89.31,1.17,1.17,0,0,0,.8-.26,1.63,1.63,0,0,0,.46-.67,3.6,3.6,0,0,0,.2-.9A9.59,9.59,0,0,0,283,29.27Z" transform="translate(-18.38 -19.8)" fill="#fff"/><path d="M290.79,30.68a1.89,1.89,0,0,1-.18.86,1.57,1.57,0,0,1-.5.58,2.16,2.16,0,0,1-.76.33,4.13,4.13,0,0,1-1,.1,5.18,5.18,0,0,1-1.31-.14,8,8,0,0,1-.95-.31.12.12,0,0,1-.07-.08.16.16,0,0,1,0-.11l.2-.74a.08.08,0,0,1,.08-.07.16.16,0,0,1,.11.06,2.91,2.91,0,0,0,.87.6,2.68,2.68,0,0,0,1.16.25,1.41,1.41,0,0,0,.87-.31,1.24,1.24,0,0,0,.3-.35.89.89,0,0,0,.12-.45.9.9,0,0,0-.27-.69,2.43,2.43,0,0,0-.68-.43c-.27-.12-.57-.23-.88-.34a4.51,4.51,0,0,1-.89-.4,2.27,2.27,0,0,1-.68-.62,1.65,1.65,0,0,1-.28-1,1.6,1.6,0,0,1,.53-1.28,2.16,2.16,0,0,1,1.46-.46,8.77,8.77,0,0,1,1.32.09c.38.06.7.1,1,.11a.07.07,0,0,1,.07,0,.18.18,0,0,1,0,.1l-.15.74c0,.09-.08.11-.18.05l-.36-.21a3,3,0,0,0-.45-.2,3.92,3.92,0,0,0-.55-.15,3.44,3.44,0,0,0-.68-.06,1.11,1.11,0,0,0-.67.22.72.72,0,0,0-.3.62.89.89,0,0,0,.28.69,2.39,2.39,0,0,0,.68.43q.41.18.89.34a4,4,0,0,1,.89.42,2.3,2.3,0,0,1,.68.67A1.91,1.91,0,0,1,290.79,30.68Z" transform="translate(-18.38 -19.8)" fill="#fff"/><path d="M297.52,27.66a1.8,1.8,0,0,1-.17.77,1.71,1.71,0,0,1-.5.62,2.47,2.47,0,0,1-.84.41,4.25,4.25,0,0,1-1.19.15h-.59a.22.22,0,0,0-.14.05.17.17,0,0,0-.07.13v2.5q0,.13-.14.13h-1c-.09,0-.14,0-.14-.13V26c0-.09,0-.13.14-.13h2.38a3.35,3.35,0,0,1,.81.1,2.12,2.12,0,0,1,.71.32,1.67,1.67,0,0,1,.51.57A1.73,1.73,0,0,1,297.52,27.66Zm-1.31,0a1.25,1.25,0,0,0-.41-1,2.14,2.14,0,0,0-1.34-.33h-.17a.29.29,0,0,0-.19.07.23.23,0,0,0-.08.18V29a.18.18,0,0,0,.07.14.21.21,0,0,0,.14.06h.12a3.73,3.73,0,0,0,.72-.07,1.53,1.53,0,0,0,.59-.24,1.22,1.22,0,0,0,.4-.48A1.76,1.76,0,0,0,296.21,27.62Z" transform="translate(-18.38 -19.8)" fill="#fff"/><path d="M303.92,32.3c.05.09,0,.13-.09.13h-1.18a.19.19,0,0,1-.2-.13l-.1-.28-.09-.24-.08-.23-.35-.94a.13.13,0,0,0-.13-.09h-2a.13.13,0,0,0-.13.09L299,32.31a.17.17,0,0,1-.18.12H298c-.05,0-.08,0-.09,0a.18.18,0,0,1,0-.12l2.46-6.39s.06-.06.15-.08l.27,0,.27,0c.08,0,.13,0,.15.08l2.3,5.69.1.23.12.24Zm-3.21-4.79s0,0-.06,0,0,0-.05,0L299.75,30a.06.06,0,0,0,0,.08.09.09,0,0,0,.07,0h1.74c.07,0,.1,0,.07-.11Z" transform="translate(-18.38 -19.8)" fill="#fff"/><path d="M310.06,31.7a2.32,2.32,0,0,1-.91.64,3.17,3.17,0,0,1-1.19.22,3.5,3.5,0,0,1-1.11-.18,2.37,2.37,0,0,1-.93-.58,2.89,2.89,0,0,1-.65-1.06,4.64,4.64,0,0,1-.24-1.6,4,4,0,0,1,.23-1.38,3.15,3.15,0,0,1,.62-1,2.68,2.68,0,0,1,.92-.66,2.87,2.87,0,0,1,1.15-.23h1.89c.09,0,.14,0,.13.11l-.08.65a.15.15,0,0,1-.05.1.11.11,0,0,1-.11,0l-.38-.13-.36-.1-.44-.06-.61,0a1.24,1.24,0,0,0-1.12.69,4.27,4.27,0,0,0-.4,2.07,5.17,5.17,0,0,0,.15,1.35,2.38,2.38,0,0,0,.41.86,1.46,1.46,0,0,0,.6.46,1.92,1.92,0,0,0,.73.14,1.53,1.53,0,0,0,.72-.2,3.47,3.47,0,0,0,.67-.46c.05,0,.09,0,.11,0l.27.31A.07.07,0,0,1,310.06,31.7Z" transform="translate(-18.38 -19.8)" fill="#fff"/><path d="M316,32.41l-.12,0h-4.11q-.14,0-.14-.13V26c0-.09,0-.13.14-.13h4l.12,0a.09.09,0,0,1,0,.09v.52a.09.09,0,0,1,0,.09.2.2,0,0,1-.12,0l-.66-.08-.57-.06-.51,0h-.88a.26.26,0,0,0-.19.07.23.23,0,0,0-.08.18v2a.07.07,0,0,0,.08.08l2-.06c.07,0,.11,0,.11.08v.52c0,.05,0,.08-.11.08l-2-.06a.07.07,0,0,0-.08.08V31.6a.26.26,0,0,0,.26.26H314l.53,0,.62-.07.71-.11a.2.2,0,0,1,.12,0,.09.09,0,0,1,0,.09v.56A.09.09,0,0,1,316,32.41Z" transform="translate(-18.38 -19.8)" fill="#fff"/><path d="M325.45,30.68a1.89,1.89,0,0,1-.18.86,1.57,1.57,0,0,1-.5.58,2.16,2.16,0,0,1-.76.33,4.13,4.13,0,0,1-1,.1,5.18,5.18,0,0,1-1.31-.14,8,8,0,0,1-.95-.31.12.12,0,0,1-.07-.08.16.16,0,0,1,0-.11l.2-.74a.08.08,0,0,1,.08-.07.16.16,0,0,1,.11.06,2.91,2.91,0,0,0,.87.6,2.68,2.68,0,0,0,1.16.25,1.41,1.41,0,0,0,.87-.31,1.24,1.24,0,0,0,.3-.35.89.89,0,0,0,.12-.45.9.9,0,0,0-.27-.69,2.43,2.43,0,0,0-.68-.43c-.27-.12-.57-.23-.88-.34a4.51,4.51,0,0,1-.89-.4,2.27,2.27,0,0,1-.68-.62,1.65,1.65,0,0,1-.28-1,1.6,1.6,0,0,1,.53-1.28,2.16,2.16,0,0,1,1.46-.46,8.77,8.77,0,0,1,1.32.09c.38.06.7.1,1,.11a.07.07,0,0,1,.07,0,.18.18,0,0,1,0,.1l-.15.74c0,.09-.08.11-.18.05l-.36-.21a3,3,0,0,0-.45-.2,3.92,3.92,0,0,0-.55-.15,3.44,3.44,0,0,0-.68-.06,1.11,1.11,0,0,0-.67.22.72.72,0,0,0-.3.62.89.89,0,0,0,.28.69,2.39,2.39,0,0,0,.68.43q.41.18.89.34a4,4,0,0,1,.89.42,2.3,2.3,0,0,1,.68.67A1.91,1.91,0,0,1,325.45,30.68Z" transform="translate(-18.38 -19.8)" fill="#fff"/><path d="M331.81,32.41l-.12,0h-4.11q-.14,0-.14-.13V26c0-.09,0-.13.14-.13h4l.12,0a.09.09,0,0,1,0,.09v.52a.09.09,0,0,1,0,.09.2.2,0,0,1-.12,0l-.66-.08-.57-.06-.51,0H329a.26.26,0,0,0-.19.07.23.23,0,0,0-.08.18v2a.07.07,0,0,0,.08.08l2-.06c.07,0,.11,0,.11.08v.52c0,.05,0,.08-.11.08l-2-.06a.07.07,0,0,0-.08.08V31.6a.26.26,0,0,0,.26.26h.88l.53,0,.62-.07.71-.11a.2.2,0,0,1,.12,0,.09.09,0,0,1,0,.09v.56A.09.09,0,0,1,331.81,32.41Z" transform="translate(-18.38 -19.8)" fill="#fff"/><path d="M338.2,31.7a2.32,2.32,0,0,1-.91.64,3.17,3.17,0,0,1-1.19.22,3.5,3.5,0,0,1-1.11-.18,2.37,2.37,0,0,1-.93-.58,2.89,2.89,0,0,1-.65-1.06,4.64,4.64,0,0,1-.24-1.6,4,4,0,0,1,.23-1.38,3.15,3.15,0,0,1,.62-1,2.68,2.68,0,0,1,.92-.66,2.87,2.87,0,0,1,1.15-.23H338c.09,0,.14,0,.13.11l-.08.65a.15.15,0,0,1-.05.1.11.11,0,0,1-.11,0l-.38-.13-.36-.1-.44-.06-.61,0a1.24,1.24,0,0,0-1.12.69,4.27,4.27,0,0,0-.4,2.07,5.17,5.17,0,0,0,.15,1.35,2.38,2.38,0,0,0,.41.86,1.46,1.46,0,0,0,.6.46,1.92,1.92,0,0,0,.73.14,1.53,1.53,0,0,0,.72-.2,3.47,3.47,0,0,0,.67-.46c.05,0,.09,0,.11,0l.27.31A.07.07,0,0,1,338.2,31.7Z" transform="translate(-18.38 -19.8)" fill="#fff"/><path d="M345,26q0,.13,0,.26c0,.08,0,.17,0,.26s0,.18,0,.26l-.09,3.63a2.14,2.14,0,0,1-.61,1.61,2.44,2.44,0,0,1-1.72.54,3,3,0,0,1-1.92-.54,2,2,0,0,1-.68-1.61l0-3.67V26c0-.09,0-.13.14-.13h1c.09,0,.14,0,.14.13l0,.78v3.6a1.9,1.9,0,0,0,.12.69,1.54,1.54,0,0,0,.31.51,1.28,1.28,0,0,0,.46.31,1.43,1.43,0,0,0,.54.1,1.54,1.54,0,0,0,.49-.08,1.32,1.32,0,0,0,.45-.26,1.23,1.23,0,0,0,.32-.46,1.8,1.8,0,0,0,.12-.7l0-3.63c0-.08,0-.17,0-.27s0-.19,0-.27l0-.27a.41.41,0,0,1,0-.13s0,0,.09,0h.87C344.95,25.83,345,25.89,345,26Z" transform="translate(-18.38 -19.8)" fill="#fff"/><path d="M352.49,32.3s0,.07,0,.09a.14.14,0,0,1-.11,0h-1.22a.14.14,0,0,1-.11,0L351,32.3l-1.38-2.52q-.24-.44-.56-.44h-.41a.23.23,0,0,0-.14,0,.15.15,0,0,0-.07.13V32.3q0,.13-.14.13h-1c-.09,0-.14,0-.14-.13V26a.22.22,0,0,1,0-.1s0,0,.09,0h2.87a2,2,0,0,1,.68.12,1.71,1.71,0,0,1,.56.32,1.55,1.55,0,0,1,.38.5,1.43,1.43,0,0,1,.14.63,1.7,1.7,0,0,1-.44,1.18,2.08,2.08,0,0,1-1.13.64c-.07,0-.08,0,0,.09a1.26,1.26,0,0,1,.16.17l.26.35,1.44,2.07Zm-1.91-4.83a1.22,1.22,0,0,0-.31-.87,1.08,1.08,0,0,0-.83-.34h-.71a.31.31,0,0,0-.2.07.22.22,0,0,0-.09.18v2.2a.18.18,0,0,0,.07.14.21.21,0,0,0,.14.06H349a1.83,1.83,0,0,0,1.15-.33A1.34,1.34,0,0,0,350.58,27.46Z" transform="translate(-18.38 -19.8)" fill="#fff"/><path d="M355.12,32.43h-1c-.09,0-.14,0-.14-.13V26c0-.09,0-.13.14-.13h1c.1,0,.14,0,.14.13V32.3Q355.26,32.43,355.12,32.43Z" transform="translate(-18.38 -19.8)" fill="#fff"/><path d="M362,26.42c0,.07-.06.11-.14.1l-.63-.07-.55,0-.5,0a.14.14,0,0,0-.1.06.21.21,0,0,0,0,.14V32.3c0,.09,0,.13-.14.13h-1q-.14,0-.14-.13V26.59a.21.21,0,0,0,0-.14.14.14,0,0,0-.1-.06l-.5,0-.55,0-.63.07c-.09,0-.14,0-.14-.1l0-.48a.07.07,0,0,1,0-.09l.13,0h4.91l.13,0a.07.07,0,0,1,0,.09Z" transform="translate(-18.38 -19.8)" fill="#fff"/><path d="M366.76,29.42a.41.41,0,0,0-.07.23V32.3c0,.09,0,.13-.14.13h-1q-.14,0-.14-.13V29.86a.44.44,0,0,0-.08-.23L363,26c-.06-.09,0-.13.07-.13h1.18a.26.26,0,0,1,.22.13l1.75,2.86a.09.09,0,0,0,.07,0,.06.06,0,0,0,.07,0l1.59-2.9s0-.07.07-.08h.9q.08,0,.09,0a.12.12,0,0,1,0,.1Z" transform="translate(-18.38 -19.8)" fill="#fff"/><path d="M264,40.67a1.8,1.8,0,0,1-.17.77,1.7,1.7,0,0,1-.5.62,2.46,2.46,0,0,1-.84.41,4.21,4.21,0,0,1-1.19.15h-.59a.22.22,0,0,0-.14.06.16.16,0,0,0-.07.13v2.5q0,.13-.14.13h-1c-.09,0-.14,0-.14-.13V39c0-.09,0-.13.14-.13h2.38a3.38,3.38,0,0,1,.81.1,2.13,2.13,0,0,1,.71.32,1.66,1.66,0,0,1,.51.57A1.73,1.73,0,0,1,264,40.67Zm-1.31,0a1.25,1.25,0,0,0-.41-1,2.15,2.15,0,0,0-1.34-.33h-.17a.29.29,0,0,0-.19.07.23.23,0,0,0-.08.18V42a.18.18,0,0,0,.07.14.21.21,0,0,0,.14.06h.12a3.73,3.73,0,0,0,.72-.07,1.56,1.56,0,0,0,.59-.24,1.23,1.23,0,0,0,.4-.48A1.77,1.77,0,0,0,262.69,40.62Z" transform="translate(-18.38 -19.8)" fill="#fff"/><path d="M271.06,45.3s0,.07,0,.09a.14.14,0,0,1-.11,0h-1.22a.14.14,0,0,1-.11,0l-.08-.09-1.38-2.52q-.24-.44-.56-.44h-.41a.24.24,0,0,0-.14,0,.15.15,0,0,0-.07.13V45.3q0,.13-.14.13h-1c-.09,0-.14,0-.14-.13V39a.22.22,0,0,1,0-.1s0,0,.09,0h2.87a2,2,0,0,1,.68.12,1.73,1.73,0,0,1,.56.32,1.55,1.55,0,0,1,.38.5,1.42,1.42,0,0,1,.14.63,1.7,1.7,0,0,1-.44,1.18,2.08,2.08,0,0,1-1.13.64c-.07,0-.08,0,0,.09a1.28,1.28,0,0,1,.16.17l.26.35,1.44,2.07Zm-1.91-4.83a1.22,1.22,0,0,0-.31-.87,1.08,1.08,0,0,0-.83-.34h-.71a.31.31,0,0,0-.2.07.22.22,0,0,0-.09.18v2.2a.18.18,0,0,0,.07.14.21.21,0,0,0,.14.06h.37a1.84,1.84,0,0,0,1.15-.33A1.34,1.34,0,0,0,269.15,40.46Z" transform="translate(-18.38 -19.8)" fill="#fff"/><path d="M278,42.09a5.58,5.58,0,0,1-.14,1.26,3.16,3.16,0,0,1-.48,1.11,2.56,2.56,0,0,1-.9.79,2.86,2.86,0,0,1-1.38.3,3,3,0,0,1-1.39-.28,2.35,2.35,0,0,1-.88-.75,2.94,2.94,0,0,1-.46-1.09,6.08,6.08,0,0,1-.13-1.28,5.58,5.58,0,0,1,.14-1.26,3.21,3.21,0,0,1,.48-1.11,2.53,2.53,0,0,1,.89-.79,2.87,2.87,0,0,1,1.38-.3,3.07,3.07,0,0,1,1.39.28,2.35,2.35,0,0,1,.89.75,3,3,0,0,1,.46,1.09A6.08,6.08,0,0,1,278,42.09Zm-1.33.18q0-.45,0-1a4.2,4.2,0,0,0-.19-1,1.89,1.89,0,0,0-.47-.78,1.22,1.22,0,0,0-.89-.31,1.17,1.17,0,0,0-.8.26,1.63,1.63,0,0,0-.46.67,3.6,3.6,0,0,0-.2.9,9.61,9.61,0,0,0,0,1c0,.3,0,.63,0,1a3.87,3.87,0,0,0,.19,1,2,2,0,0,0,.48.78,1.22,1.22,0,0,0,.89.31,1.17,1.17,0,0,0,.8-.26,1.62,1.62,0,0,0,.46-.67,3.61,3.61,0,0,0,.2-.9A9.59,9.59,0,0,0,276.63,42.27Z" transform="translate(-18.38 -19.8)" fill="#fff"/><path d="M282.44,42.14v1.67a1.65,1.65,0,0,1-.12.62,1.41,1.41,0,0,1-.35.51,1.71,1.71,0,0,1-.59.35,2.34,2.34,0,0,1-.82.13h-1.3l-.12,0a.07.07,0,0,1,0-.09l.05-.68a.16.16,0,0,1,.06-.1.08.08,0,0,1,.1,0,1.51,1.51,0,0,0,.59.3,2.16,2.16,0,0,0,.62.08.51.51,0,0,0,.22-.06.61.61,0,0,0,.22-.2,1.2,1.2,0,0,0,.17-.35,1.75,1.75,0,0,0,.07-.51V39a.13.13,0,0,1,.14-.14h1c.06,0,.1,0,.11,0a.21.21,0,0,1,0,.1Z" transform="translate(-18.38 -19.8)" fill="#fff"/><path d="M289.05,45.41l-.12,0h-4.11q-.14,0-.14-.13V39q0-.13.14-.13h4l.12,0a.09.09,0,0,1,0,.09v.52a.09.09,0,0,1,0,.09.19.19,0,0,1-.12,0l-.66-.08-.57-.06-.51,0h-.88a.26.26,0,0,0-.19.07.24.24,0,0,0-.08.18v2a.07.07,0,0,0,.08.08l2-.05c.07,0,.11,0,.11.08v.52c0,.05,0,.08-.11.08l-2-.06a.07.07,0,0,0-.08.08V44.6a.26.26,0,0,0,.26.26h.88l.53,0,.62-.07.71-.11a.19.19,0,0,1,.12,0,.09.09,0,0,1,0,.09v.56A.09.09,0,0,1,289.05,45.41Z" transform="translate(-18.38 -19.8)" fill="#fff"/><path d="M295.44,44.7a2.33,2.33,0,0,1-.91.64,3.17,3.17,0,0,1-1.19.22,3.5,3.5,0,0,1-1.11-.18,2.37,2.37,0,0,1-.93-.58,2.89,2.89,0,0,1-.65-1.06,4.64,4.64,0,0,1-.24-1.6,4,4,0,0,1,.23-1.38,3.16,3.16,0,0,1,.62-1,2.68,2.68,0,0,1,.92-.66,2.87,2.87,0,0,1,1.15-.23h1.89c.09,0,.14,0,.13.11l-.08.65a.14.14,0,0,1-.05.1.11.11,0,0,1-.11,0l-.38-.13-.36-.1-.44-.06-.61,0a1.24,1.24,0,0,0-1.12.69,4.27,4.27,0,0,0-.4,2.07,5.17,5.17,0,0,0,.15,1.35,2.38,2.38,0,0,0,.41.86,1.46,1.46,0,0,0,.6.46,1.92,1.92,0,0,0,.73.14,1.53,1.53,0,0,0,.72-.2,3.47,3.47,0,0,0,.67-.46c.05,0,.09,0,.11,0l.27.31A.07.07,0,0,1,295.44,44.7Z" transform="translate(-18.38 -19.8)" fill="#fff"/><path d="M301.81,39.42c0,.07-.06.11-.14.1l-.63-.07-.55,0-.5,0a.14.14,0,0,0-.1.05.21.21,0,0,0,0,.14V45.3c0,.09,0,.13-.14.13h-1q-.14,0-.14-.13V39.59a.21.21,0,0,0,0-.14.14.14,0,0,0-.1-.05l-.5,0-.55,0-.63.07c-.09,0-.14,0-.14-.1l0-.48a.07.07,0,0,1,0-.09l.13,0h4.91l.13,0a.07.07,0,0,1,0,.09Z" transform="translate(-18.38 -19.8)" fill="#fff"/></svg>